<svg xmlns="http://www.w3.org/2000/svg" width="64" height="64" viewBox="0 0 135.47 135.47"><defs><linearGradient id="A" x2="50.93" gradientUnits="userSpaceOnUse" x1="25.812" y1="45.935" y2="89.441"><stop stop-color="#32a651" offset="0"/><stop stop-color="#279847" offset="1"/></linearGradient><linearGradient id="B" x2="90.685" gradientUnits="userSpaceOnUse" x1="29.399" y1="42.333" y2="42.333"><stop stop-color="#db3328" offset="0"/><stop stop-color="#e53d30" offset="1"/></linearGradient><clipPath id="C"><path d="M8.574 96h.004v-.008h-.004z"/></clipPath><clipPath id="D"><path d="M8.574 96h.004v-.008h-.004z"/></clipPath></defs><g transform="matrix(1.0583 0 0 -1.0583 0 135.47)"><g clip-path="url(#D)" opacity=".5"><path d="M8.579 95.992L8.575 96z" fill="#d663ff"/></g><g clip-path="url(#C)" opacity=".5"><path d="M8.579 95.992L8.575 96z" fill="#9963ff"/></g></g><path d="M67.733 67.733l29.33 16.933-29.33 50.8c37.408 0 67.733-30.325 67.733-67.733a67.4 67.4 0 0 0-9.084-33.867h-58.65z" fill="#fbbf12"/><path d="M67.733 0C42.663 0 20.791 13.63 9.079 33.875l29.324 50.792 29.33-16.933V33.867h58.65C114.669 13.627 92.8 0 67.733 0z" fill="url(#B)"/><path d="M0 67.733c0 37.408 30.324 67.733 67.733 67.733l29.33-50.8-29.33-16.933-29.33 16.933L9.079 33.874A67.39 67.39 0 0 0 0 67.732" fill="url(#A)"/><path d="M101.6 67.733c0 18.704-15.163 33.867-33.867 33.867S33.866 86.437 33.866 67.733s15.163-33.867 33.867-33.867S101.6 49.029 101.6 67.733" fill="#fff"/><path d="M95.25 67.733c0 15.197-12.32 27.517-27.517 27.517S40.216 82.93 40.216 67.733s12.32-27.517 27.517-27.517S95.25 52.536 95.25 67.733" fill="#1a73e8"/></svg>
