<svg xmlns="http://www.w3.org/2000/svg" fill="none" width="512" height="512" viewBox="0 0 512 512"><g clip-path="url(#a)"><path d="M462.1 381.08a187.6 187.6 0 0 1-21.08 9.42 203.73 203.73 0 0 1-71.8 12.92c-94.64 0-177.08-65.1-177.08-148.64A62.95 62.95 0 0 1 225 200.16c-85.6 3.6-107.6 92.8-107.6 145.06 0 147.76 136.18 162.74 165.52 162.74 15.82 0 39.68-4.6 54-9.12l2.62-.88a256.68 256.68 0 0 0 133.2-105.6 8 8 0 0 0-10.64-11.28z" fill="url(#b)"/><path d="M462.1 381.08a187.6 187.6 0 0 1-21.08 9.42 203.73 203.73 0 0 1-71.8 12.92c-94.64 0-177.08-65.1-177.08-148.64A62.95 62.95 0 0 1 225 200.16c-85.6 3.6-107.6 92.8-107.6 145.06 0 147.76 136.18 162.74 165.52 162.74 15.82 0 39.68-4.6 54-9.12l2.62-.88a256.68 256.68 0 0 0 133.2-105.6 8 8 0 0 0-10.64-11.28z" fill="url(#c)" opacity=".35"/><path d="M211.42 482.84a158.4 158.4 0 0 1-45.48-42.68 161.44 161.44 0 0 1 59.06-240c6.24-2.94 16.9-8.26 31.08-8a64.7 64.7 0 0 1 51.38 26 63.77 63.77 0 0 1 12.72 37.32c0-.42 48.92-159.2-160-159.2-87.8 0-160 83.32-160 156.42a260.3 260.3 0 0 0 24.22 112 256 256 0 0 0 312.76 134.22 151.09 151.09 0 0 1-125.56-16l-.18-.08z" fill="url(#d)"/><path d="M211.42 482.84a158.4 158.4 0 0 1-45.48-42.68 161.44 161.44 0 0 1 59.06-240c6.24-2.94 16.9-8.26 31.08-8a64.7 64.7 0 0 1 51.38 26 63.77 63.77 0 0 1 12.72 37.32c0-.42 48.92-159.2-160-159.2-87.8 0-160 83.32-160 156.42a260.3 260.3 0 0 0 24.22 112 256 256 0 0 0 312.76 134.22 151.09 151.09 0 0 1-125.56-16l-.18-.08z" fill="url(#e)" opacity=".41"/><path d="M304.62 297.72c-1.62 2.1-6.6 5-6.6 11.32 0 5.22 3.4 10.24 9.44 14.46 28.76 20 82.98 17.36 83.12 17.36a119.12 119.12 0 0 0 60.54-16.7 122.76 122.76 0 0 0 60.86-105.76c.52-44.82-16-74.62-22.68-87.82C446.92 47.68 355.44 0 255.96 0a256 256 0 0 0-256 252.4c.96-73.08 73.6-132.1 160-132.1 7 0 46.92.68 84 20.14 32.68 17.16 49.8 37.88 61.7 58.42 12.36 21.34 14.56 48.3 14.56 59.04 0 10.74-5.48 26.66-15.6 39.82z" fill="url(#f)"/><path d="M304.62 297.72c-1.62 2.1-6.6 5-6.6 11.32 0 5.22 3.4 10.24 9.44 14.46 28.76 20 82.98 17.36 83.12 17.36a119.12 119.12 0 0 0 60.54-16.7 122.76 122.76 0 0 0 60.86-105.76c.52-44.82-16-74.62-22.68-87.82C446.92 47.68 355.44 0 255.96 0a256 256 0 0 0-256 252.4c.96-73.08 73.6-132.1 160-132.1 7 0 46.92.68 84 20.14 32.68 17.16 49.8 37.88 61.7 58.42 12.36 21.34 14.56 48.3 14.56 59.04 0 10.74-5.48 26.66-15.6 39.82z" fill="url(#g)"/></g><defs><radialGradient id="c" cx="0" cy="0" r="1" gradientTransform="matrix(190.76 0 0 181.222 314.4 356.91)" gradientUnits="userSpaceOnUse"><stop offset=".72" stop-opacity="0"/><stop offset=".95" stop-opacity=".53"/><stop offset="1"/></radialGradient><radialGradient id="e" cx="0" cy="0" r="1" gradientTransform="matrix(42.99351 -283.61176 229.1302 34.7345 141.12 398)" gradientUnits="userSpaceOnUse"><stop offset=".76" stop-opacity="0"/><stop offset=".95" stop-opacity=".5"/><stop offset="1"/></radialGradient><radialGradient id="f" cx="0" cy="0" r="1" gradientTransform="matrix(-16.19434 404.86024 -862.26747 -34.49055 51.68 94.75)" gradientUnits="userSpaceOnUse"><stop stop-color="#35C1F1"/><stop offset=".11" stop-color="#34C1ED"/><stop offset=".23" stop-color="#2FC2DF"/><stop offset=".31" stop-color="#2BC3D2"/><stop offset=".67" stop-color="#36C752"/></radialGradient><radialGradient id="g" cx="0" cy="0" r="1" gradientTransform="matrix(54.50973 186.893 -151.9816 44.32738 480.1 154.82)" gradientUnits="userSpaceOnUse"><stop stop-color="#66EB6E"/><stop offset="1" stop-color="#66EB6E" stop-opacity="0"/></radialGradient><linearGradient id="b" x1="117.4" x2="474.08" y1="354.1" y2="354.1" gradientUnits="userSpaceOnUse"><stop stop-color="#0C59A4"/><stop offset="1" stop-color="#114A8B"/></linearGradient><linearGradient id="d" x1="305.44" x2="82.66" y1="199.38" y2="442.04" gradientUnits="userSpaceOnUse"><stop stop-color="#1B9DE2"/><stop offset=".16" stop-color="#1595DF"/><stop offset=".67" stop-color="#0680D7"/><stop offset="1" stop-color="#0078D4"/></linearGradient><clipPath id="a"><path d="M0 0h512v512H0z" fill="#fff"/></clipPath></defs></svg>