<svg xmlns="http://www.w3.org/2000/svg" fill="none" width="512" height="512"><path d="M485.72 171.89c-10.78-25.94-32.65-53.95-49.78-62.8a257.81 257.81 0 0 1 25.13 75.28l.05.42c-28.06-69.91-75.6-98.15-114.48-159.55-1.96-3.1-3.93-6.21-5.84-9.5a78.33 78.33 0 0 1-2.74-5.12 45.13 45.13 0 0 1-3.7-9.83.64.64 0 0 0-.56-.64.88.88 0 0 0-.47 0c-.03 0-.08.06-.12.07-.04 0-.12.07-.18.1l.1-.17C270.8 36.65 249.63 104.2 247.72 138a124.14 124.14 0 0 0-68.31 26.32 74.28 74.28 0 0 0-6.4-4.86 115.04 115.04 0 0 1-.7-60.65 183.74 183.74 0 0 0-59.73 46.16h-.12c-9.83-12.46-9.14-53.56-8.58-62.15a44.37 44.37 0 0 0-8.28 4.4 180.72 180.72 0 0 0-24.25 20.77 216.66 216.66 0 0 0-23.2 27.83v.04-.04a209.55 209.55 0 0 0-33.3 75.16l-.33 1.64a398.68 398.68 0 0 0-2.44 15.5c0 .18-.03.35-.05.54A236.52 236.52 0 0 0 8 262.86v1.29a248.16 248.16 0 0 0 227.1 246.82 248.16 248.16 0 0 0 265.56-204.86c.42-3.2.76-6.37 1.13-9.6a255.2 255.2 0 0 0-16.1-124.66l.03.04zm-286 194.25c1.17.56 2.25 1.16 3.44 1.69l.18.1a130.35 130.35 0 0 1-3.6-1.8zm261.4-181.28v-.24l.05.27-.05-.11z" fill="url(#a)"/><path d="M485.72 171.9c-10.78-25.95-32.65-53.96-49.78-62.82a257.82 257.82 0 0 1 25.13 75.3v.23l.05.3a224.72 224.72 0 0 1-7.72 167.52c-28.44 61.03-97.26 123.58-205 120.5-116.4-3.3-218.97-89.7-238.1-202.83-3.5-17.86 0-26.91 1.74-41.41a184.92 184.92 0 0 0-3.99 34.23v1.3a248.16 248.16 0 0 0 227.1 246.8 248.15 248.15 0 0 0 265.57-204.86c.41-3.2.75-6.37 1.12-9.6a255.2 255.2 0 0 0-16.1-124.66l-.02.03z" fill="url(#b)"/><path d="M485.72 171.9c-10.78-25.95-32.65-53.96-49.78-62.82a257.82 257.82 0 0 1 25.13 75.3v.23l.05.3a224.72 224.72 0 0 1-7.72 167.52c-28.44 61.03-97.26 123.58-205 120.5-116.4-3.3-218.97-89.7-238.1-202.83-3.5-17.86 0-26.91 1.74-41.41a184.92 184.92 0 0 0-3.99 34.23v1.3a248.16 248.16 0 0 0 227.1 246.8 248.15 248.15 0 0 0 265.57-204.86c.41-3.2.75-6.37 1.12-9.6a255.2 255.2 0 0 0-16.1-124.66l-.02.03z" fill="url(#c)"/><path d="M365.1 201.02c.54.38 1.04.76 1.54 1.13a135.05 135.05 0 0 0-23.04-30.05C266.45 94.95 323.38 4.87 332.98.26l.1-.15c-62.33 36.5-83.5 104.04-85.4 137.85 2.9-.2 5.75-.44 8.71-.44A125.23 125.23 0 0 1 365.1 201v.01z" fill="url(#d)"/><path d="M256.52 216.45c-.41 6.17-22.22 27.46-29.84 27.46-70.56 0-82.02 42.69-82.02 42.69 3.13 35.94 28.17 65.56 58.45 81.18 1.38.72 2.78 1.36 4.19 2a137.86 137.86 0 0 0 7.28 2.98 110.38 110.38 0 0 0 32.29 6.23c123.7 5.8 147.64-147.9 58.38-192.52A85.66 85.66 0 0 1 365.08 201a125.22 125.22 0 0 0-45.8-46.4 125.22 125.22 0 0 0-62.91-17.1c-2.95 0-5.83.25-8.72.44a124.15 124.15 0 0 0-68.31 26.32c3.78 3.2 8.05 7.48 17.05 16.35 16.8 16.6 60 33.8 60.1 35.8v.1z" fill="url(#e)"/><path d="M256.52 216.45c-.41 6.17-22.22 27.46-29.84 27.46-70.56 0-82.02 42.69-82.02 42.69 3.13 35.94 28.17 65.56 58.45 81.18 1.38.72 2.78 1.36 4.19 2a137.86 137.86 0 0 0 7.28 2.98 110.38 110.38 0 0 0 32.29 6.23c123.7 5.8 147.64-147.9 58.38-192.52A85.66 85.66 0 0 1 365.08 201a125.22 125.22 0 0 0-45.8-46.4 125.22 125.22 0 0 0-62.91-17.1c-2.95 0-5.83.25-8.72.44a124.15 124.15 0 0 0-68.31 26.32c3.78 3.2 8.05 7.48 17.05 16.35 16.8 16.6 60 33.8 60.1 35.8v.1z" fill="url(#f)"/><path d="M167.78 156.08c2 1.28 3.67 2.4 5.12 3.4a115.04 115.04 0 0 1-.7-60.65 183.74 183.74 0 0 0-59.72 46.16c1.2-.03 37.2-.68 55.3 11.09z" fill="url(#g)"/><path d="M10.24 270.04C29.4 383.17 131.95 469.6 248.34 472.87c107.76 3.05 176.59-59.5 205.01-120.5a224.72 224.72 0 0 0 7.72-167.48v-.3c0-.19-.04-.3 0-.25l.05.42c8.8 57.49-20.43 113.14-66.14 150.85l-.14.32c-89.06 72.54-174.27 43.76-191.5 32a128.97 128.97 0 0 1-3.6-1.8c-51.92-24.8-73.38-72.08-68.77-112.67A63.72 63.72 0 0 1 72.2 216.5a93.6 93.6 0 0 1 91.24-3.66 123.57 123.57 0 0 0 93.15 3.65c-.1-2.02-43.29-19.2-60.13-35.8-9-8.85-13.26-13.12-17.05-16.33a74.3 74.3 0 0 0-6.4-4.85c-1.47-1-3.13-2.1-5.12-3.4-18.1-11.76-54.1-11.1-55.29-11.09h-.1c-9.85-12.45-9.15-53.56-8.59-62.14a44.37 44.37 0 0 0-8.29 4.4 180.72 180.72 0 0 0-24.25 20.77 216.66 216.66 0 0 0-23.3 27.77v.04-.05A209.55 209.55 0 0 0 14.8 211c-.12.5-8.94 39.04-4.6 59.03h.05z" fill="url(#h)"/><path d="M343.59 172.08a135.1 135.1 0 0 1 23.05 30.1 51.85 51.85 0 0 1 3.72 3.04c56.26 51.86 26.78 125.17 24.58 130.36 45.7-37.66 74.91-93.35 66.14-150.85C433 114.76 385.4 86.53 346.6 25.13a302.2 302.2 0 0 1-5.84-9.5 78.33 78.33 0 0 1-2.73-5.13 45.18 45.18 0 0 1-3.7-9.83.64.64 0 0 0-.57-.64.88.88 0 0 0-.47 0c-.03 0-.08.06-.12.07l-.18.1c-9.6 4.55-66.52 94.69 10.63 171.77l-.03.11z" fill="url(#i)"/><path d="M370.35 205.25c-1.08-1-2.36-2.02-3.72-3.05-.5-.38-1-.76-1.54-1.13a85.67 85.67 0 0 0-59.83-14.53c89.25 44.62 65.3 198.28-58.39 192.52a110.35 110.35 0 0 1-32.28-6.23 130.3 130.3 0 0 1-7.29-2.98c-1.4-.64-2.8-1.28-4.19-2l.18.1c17.2 11.78 102.4 40.55 191.42-32l.14-.32c2.23-5.19 31.7-78.5-24.57-130.36l.01-.02z" fill="url(#j)"/><path d="M144.67 286.56s11.45-42.69 82.01-42.69c7.63 0 29.45-21.29 29.84-27.46a123.56 123.56 0 0 1-93.15-3.66 93.6 93.6 0 0 0-91.24 3.66 63.72 63.72 0 0 0 58.78 36.98c-4.6 40.57 16.85 87.84 68.77 112.68 1.15.56 2.24 1.16 3.43 1.69-30.3-15.65-55.32-45.26-58.44-81.18v-.02z" fill="url(#k)"/><path d="M485.72 171.89c-10.78-25.94-32.65-53.95-49.78-62.8a257.78 257.78 0 0 1 25.13 75.28l.05.42c-28.06-69.91-75.6-98.15-114.48-159.55-1.96-3.1-3.93-6.21-5.84-9.5a78.33 78.33 0 0 1-2.74-5.12 45.23 45.23 0 0 1-3.7-9.83.64.64 0 0 0-.56-.64.88.88 0 0 0-.47 0c-.03 0-.08.06-.12.07-.04 0-.12.07-.18.1l.1-.17C270.8 36.65 249.63 104.2 247.72 138c2.9-.2 5.76-.45 8.72-.45a125.23 125.23 0 0 1 108.71 63.5 85.66 85.66 0 0 0-59.83-14.53c89.25 44.62 65.3 198.28-58.38 192.52a110.4 110.4 0 0 1-32.29-6.23 130.9 130.9 0 0 1-7.28-2.98c-1.4-.64-2.8-1.28-4.2-2l.18.1a130.35 130.35 0 0 1-3.6-1.8c1.15.57 2.24 1.17 3.43 1.7-30.3-15.66-55.33-45.27-58.45-81.18 0 0 11.46-42.69 82.02-42.69 7.62 0 29.45-21.3 29.84-27.46-.1-2.02-43.28-19.2-60.12-35.8-9-8.86-13.27-13.13-17.05-16.33a74.28 74.28 0 0 0-6.4-4.86 115.04 115.04 0 0 1-.7-60.65 183.74 183.74 0 0 0-59.73 46.17h-.12c-9.83-12.47-9.14-53.57-8.57-62.16a44.36 44.36 0 0 0-8.3 4.4 180.71 180.71 0 0 0-24.24 20.77 216.67 216.67 0 0 0-23.2 27.84v.03-.04a209.55 209.55 0 0 0-33.3 75.16l-.32 1.64a424.79 424.79 0 0 0-2.86 15.66A288.7 288.7 0 0 0 8 262.92v1.28a248.16 248.16 0 0 0 399.73 196.05 248.16 248.16 0 0 0 92.94-154.09c.42-3.2.75-6.37 1.13-9.6a255.2 255.2 0 0 0-16.1-124.66l.01-.01zm-24.62 12.75.05.26-.04-.26z" fill="url(#l)"/><defs><radialGradient id="h" cx="0" cy="0" r="1" gradientTransform="translate(379.31 -76.71) scale(756.124)" gradientUnits="userSpaceOnUse"><stop offset=".11" stop-color="#FFF44F"/><stop offset=".46" stop-color="#FF980E"/><stop offset=".62" stop-color="#FF5634"/><stop offset=".72" stop-color="#FF3647"/><stop offset=".9" stop-color="#E31587"/></radialGradient><radialGradient id="b" cx="0" cy="0" r="1" gradientTransform="translate(436.94 57.74) scale(517.314)" gradientUnits="userSpaceOnUse"><stop offset=".13" stop-color="#FFBD4F"/><stop offset=".19" stop-color="#FFAC31"/><stop offset=".25" stop-color="#FF9D17"/><stop offset=".28" stop-color="#FF980E"/><stop offset=".4" stop-color="#FF563B"/><stop offset=".47" stop-color="#FF3750"/><stop offset=".71" stop-color="#F5156C"/><stop offset=".78" stop-color="#EB0878"/><stop offset=".86" stop-color="#E50080"/></radialGradient><radialGradient id="d" cx="0" cy="0" r="1" gradientTransform="translate(308.89 -57.5) scale(374.732)" gradientUnits="userSpaceOnUse"><stop offset=".13" stop-color="#FFF44F"/><stop offset=".25" stop-color="#FFDC3E"/><stop offset=".51" stop-color="#FF9D12"/><stop offset=".53" stop-color="#FF980E"/></radialGradient><radialGradient id="e" cx="0" cy="0" r="1" gradientTransform="translate(187.24 403.47) scale(246.3)" gradientUnits="userSpaceOnUse"><stop offset=".35" stop-color="#3A8EE6"/><stop offset=".47" stop-color="#5C79F0"/><stop offset=".67" stop-color="#9059FF"/><stop offset="1" stop-color="#C139E6"/></radialGradient><radialGradient id="f" cx="0" cy="0" r="1" gradientTransform="matrix(126.95318 -30.68975 35.92988 148.6298 269.85 224.59)" gradientUnits="userSpaceOnUse"><stop offset=".21" stop-color="#9059FF" stop-opacity="0"/><stop offset=".28" stop-color="#8C4FF3" stop-opacity=".06"/><stop offset=".75" stop-color="#7716A8" stop-opacity=".45"/><stop offset=".97" stop-color="#6E008B" stop-opacity=".6"/></radialGradient><radialGradient id="g" cx="0" cy="0" r="1" gradientTransform="translate(238.46 38.53) scale(177.218)" gradientUnits="userSpaceOnUse"><stop stop-color="#FFE226"/><stop offset=".12" stop-color="#FFDB27"/><stop offset=".29" stop-color="#FFC82A"/><stop offset=".5" stop-color="#FFA930"/><stop offset=".73" stop-color="#FF7E37"/><stop offset=".79" stop-color="#FF7139"/></radialGradient><radialGradient id="c" cx="0" cy="0" r="1" gradientTransform="translate(244.86 269.01) scale(517.314)" gradientUnits="userSpaceOnUse"><stop offset=".3" stop-color="#960E18"/><stop offset=".35" stop-color="#B11927" stop-opacity=".74"/><stop offset=".43" stop-color="#DB293D" stop-opacity=".34"/><stop offset=".5" stop-color="#F5334B" stop-opacity=".09"/><stop offset=".53" stop-color="#FF3750" stop-opacity="0"/></radialGradient><radialGradient id="i" cx="0" cy="0" r="1" gradientTransform="matrix(58.11137 551.04234 -361.6446 38.13802 316.48 -34.78)" gradientUnits="userSpaceOnUse"><stop stop-color="#FFF44F"/><stop offset=".06" stop-color="#FFE847"/><stop offset=".17" stop-color="#FFC830"/><stop offset=".3" stop-color="#FF980E"/><stop offset=".36" stop-color="#FF8B16"/><stop offset=".46" stop-color="#FF672A"/><stop offset=".57" stop-color="#FF3647"/><stop offset=".74" stop-color="#E31587"/></radialGradient><radialGradient id="j" cx="0" cy="0" r="1" gradientTransform="translate(238.46 102.55) scale(471.985)" gradientUnits="userSpaceOnUse"><stop offset=".14" stop-color="#FFF44F"/><stop offset=".48" stop-color="#FF980E"/><stop offset=".59" stop-color="#FF5634"/><stop offset=".66" stop-color="#FF3647"/><stop offset=".9" stop-color="#E31587"/></radialGradient><radialGradient id="k" cx="0" cy="0" r="1" gradientTransform="translate(360.1 128.16) scale(516.61)" gradientUnits="userSpaceOnUse"><stop offset=".09" stop-color="#FFF44F"/><stop offset=".23" stop-color="#FFE141"/><stop offset=".51" stop-color="#FFAF1E"/><stop offset=".63" stop-color="#FF980E"/></radialGradient><linearGradient id="a" x1="452.88" x2="40.93" y1="79.41" y2="476.87" gradientUnits="userSpaceOnUse"><stop offset=".05" stop-color="#FFF44F"/><stop offset=".11" stop-color="#FFE847"/><stop offset=".23" stop-color="#FFC830"/><stop offset=".37" stop-color="#FF980E"/><stop offset=".4" stop-color="#FF8B16"/><stop offset=".46" stop-color="#FF672A"/><stop offset=".53" stop-color="#FF3647"/><stop offset=".7" stop-color="#E31587"/></linearGradient><linearGradient id="l" x1="447.88" x2="97.42" y1="77.3" y2="427.83" gradientUnits="userSpaceOnUse"><stop offset=".17" stop-color="#FFF44F" stop-opacity=".8"/><stop offset=".27" stop-color="#FFF44F" stop-opacity=".63"/><stop offset=".49" stop-color="#FFF44F" stop-opacity=".22"/><stop offset=".6" stop-color="#FFF44F" stop-opacity="0"/></linearGradient></defs></svg>