<svg xmlns="http://www.w3.org/2000/svg" fill="none" width="512" height="512" viewBox="0 0 512 512"><path d="M256 511.21c111.94 0 174.15 0 214.9-40.62 40.65-40.62 40.65-102.74 40.65-214.59 0-111.85 0-173.97-40.65-214.6C430.15.9 367.94.9 256 .9 144.06.9 81.85.9 41.1 41.52.44 82.14.44 144.26.44 256.12c0 111.84 0 173.96 40.64 214.58 40.76 40.51 102.97 40.51 214.91 40.51z" fill="#EF3939"/><path d="M422.18 161.7a191.36 191.36 0 0 0-117-90.13C202.88 44.22 97.8 104.77 70.4 206.82a190.1 190.1 0 0 0 19.65 145.95c.34.57.67 1.24 1.12 1.8l90.05 155.86c14.94.44 31.1.56 48.5.56h25.38c49.74 0 89.71 0 122.4-3.6 40.75-4.5 69.94-14.52 92.51-37.02 32.9-32.86 39.18-79.9 40.42-156.08-52.55-90.92-88.14-152.48-88.25-152.6z" fill="url(#a)"/><path d="M390.51 121.08c-74.66-74.72-195.81-74.72-270.6 0-74.63 74.72-74.63 195.8.04 270.4 74.66 74.72 195.8 74.72 270.6 0 74.77-74.72 74.77-195.8 0-270.4zm-11.45 87.88c-31.55 54.8-63.1 109.6-94.65 164.52-5.81 10.24-14.34 16.31-26.02 17.21-13.03.9-23.36-4.6-29.98-15.86-20-34.32-39.76-68.87-59.51-103.3-12.04-20.93-24.17-41.86-36.18-62.9-12.13-21.16 1.57-46.93 25.82-48.17 12.8-.67 22.68 5.3 29.2 16.43 8.86 15.16 17.62 30.58 26.5 45.88 6.4 11.02 12.57 22.16 19.08 32.96 9.43 15.87 23.35 24.76 41.88 25.89 26.16 1.57 50.53-17.45 53.67-45.24.23-2.01.34-4.15.45-5.17-.11-9-1.8-16.65-5.4-23.74-9.76-19.58.68-41.52 21.9-46.25 17.3-3.82 35.26 8.9 37.5 26.45 1.13 7.54-.44 14.62-4.26 21.26z" fill="#fff"/><defs><linearGradient id="a" x1="160.22" x2="403.24" y1="90.46" y2="513.5" gradientUnits="userSpaceOnUse"><stop stop-opacity=".2"/><stop offset=".79" stop-opacity=".05"/></linearGradient></defs></svg>