<svg xmlns="http://www.w3.org/2000/svg" fill="none" width="64" height="64" viewBox="0 0 512 512"><path d="m458.7 122.8 12-29.5S455.5 77 437 58.4c-18.5-18.5-57.7-7.6-57.7-7.6L334.5 0h-157l-44.7 50.8s-39.2-11-57.7 7.6c-18.6 18.6-33.8 35-33.8 35l12 29.4L38 166.5s44.9 170.2 50.1 191c10.4 41 17.5 56.8 47 77.5a3426 3426 0 0 0 91.5 62.2c8.7 5.5 19.6 14.8 29.4 14.8 9.8 0 20.7-9.3 29.4-14.8A3393 3393 0 0 0 377 435c29.4-20.7 36.5-36.5 46.9-77.5 5.2-20.8 50.1-191 50.1-191l-15.3-43.7z" fill="url(#a)" fill-rule="evenodd" clip-rule="evenodd"/><path d="M366.6 83s57.5 69.6 57.5 84.4c0 15-7.2 18.8-14.5 26.6l-43 45.8c-4.2 4.3-12.7 11-7.7 22.8 5 11.8 12.4 26.8 4.2 42.1S341 330.2 332 328.5c-9-1.7-30.1-12.7-37.9-17.8-7.8-5-32.4-25.4-32.4-33.1 0-7.8 25.5-21.8 30.2-25 4.7-3.1 26.1-15.4 26.6-20.2.4-4.9.2-6.3-6-18.2-6.4-11.9-17.8-27.8-16-38.4 2-10.5 20.4-16 33.5-21 13-5 38.3-14.3 41.5-15.8 3.1-1.4 2.3-2.8-7.2-3.7-9.6-1-36.7-4.5-49-1.1-12.2 3.4-33 8.6-34.7 11.3-1.7 2.8-3.2 2.9-1.5 12.4 1.8 9.5 10.7 55 11.6 63.1.8 8.1 2.5 13.5-6.2 15.5s-23.4 5.4-28.4 5.4-19.7-3.4-28.4-5.4c-8.7-2-7-7.4-6.2-15.5.9-8 9.8-53.6 11.6-63.1 1.7-9.5.2-9.6-1.5-12.4-1.7-2.7-22.6-8-34.8-11.3-12.2-3.4-39.3.2-48.9 1-9.5 1-10.3 2.4-7.2 3.8 3.2 1.5 28.4 10.8 41.5 15.8 13.1 5 31.5 10.5 33.4 21 2 10.6-9.5 26.5-15.8 38.4-6.3 12-6.5 13.3-6 18.2.4 4.8 21.8 17 26.5 20.2 4.7 3.2 30.2 17.2 30.2 25 0 7.7-24.6 28-32.4 33.1-7.8 5-28.9 16.1-37.9 17.8-9 1.7-23-8.5-31.2-23.8s-.8-30.3 4.2-42.1c5-11.9-3.5-18.5-7.6-22.8L102.4 194c-7.3-7.8-14.5-11.7-14.5-26.6 0-14.8 57.5-84.4 57.5-84.4s48.5 9.3 55 9.3 20.7-5.5 33.8-9.9c13-4.3 21.8-4.4 21.8-4.4s8.7 0 21.8 4.4c13 4.4 27.3 9.9 33.8 9.9 6.5 0 55-9.3 55-9.3zm-43 266.2c3.5 2.2 1.3 6.4-2 8.7a2757 2757 0 0 0-51 39.8c-4.2 3.7-10.4 10-14.6 10-4.2 0-10.4-6.3-14.7-10-4.2-3.7-47.7-37.5-51-39.8-3.2-2.3-5.4-6.5-1.8-8.7 3.5-2.3 14.6-7.9 30-15.8 15.4-8 34.5-14.8 37.5-14.8s22.1 6.8 37.5 14.8c15.4 8 26.5 13.5 30 15.8z" fill="#fff" fill-rule="evenodd" clip-rule="evenodd"/><mask id="b" width="362" height="93" x="75" y="0" maskUnits="userSpaceOnUse" style="mask-type:alpha"><path d="M379.2 50.8 334.5 0h-157l-44.7 50.8s-39.2-11-57.7 7.6c0 0 52.3-4.7 70.3 24.6 0 0 48.5 9.3 55 9.3s20.7-5.5 33.8-9.9c13-4.3 21.8-4.4 21.8-4.4s8.7 0 21.8 4.4c13 4.4 27.3 9.9 33.8 9.9 6.5 0 55-9.3 55-9.3 18-29.3 70.3-24.6 70.3-24.6-18.5-18.5-57.7-7.6-57.7-7.6z" fill="#fff"/></mask><g mask="url(#b)"><path d="M379.2 50.8 334.5 0h-157l-44.7 50.8s-39.2-11-57.7 7.6c0 0 52.3-4.7 70.3 24.6 0 0 48.5 9.3 55 9.3s20.7-5.5 33.8-9.9c13-4.3 21.8-4.4 21.8-4.4s8.7 0 21.8 4.4c13 4.4 27.3 9.9 33.8 9.9 6.5 0 55-9.3 55-9.3 18-29.3 70.3-24.6 70.3-24.6-18.5-18.5-57.7-7.6-57.7-7.6z" fill="url(#c)"/></g><defs><linearGradient id="a" x1="38" x2="474" y1="259.6" y2="259.6" gradientUnits="userSpaceOnUse"><stop stop-color="#F50"/><stop offset=".4" stop-color="#F50"/><stop offset=".6" stop-color="#FF2000"/><stop offset="1" stop-color="#FF2000"/></linearGradient><linearGradient id="c" x1="82.8" x2="436.9" y1="46.8" y2="46.8" gradientUnits="userSpaceOnUse"><stop stop-color="#FF452A"/><stop offset="1" stop-color="#FF2000"/></linearGradient></defs></svg>